<?xml version="1.0" standalone="no"?>
<!DOCTYPE svg PUBLIC "-//W3C//DTD SVG 20010904//EN"
 "http://www.w3.org/TR/2001/REC-SVG-20010904/DTD/svg10.dtd">
<svg version="1.0" xmlns="http://www.w3.org/2000/svg"
 width="106.000000pt" height="212.000000pt" viewBox="0 0 106.000000 212.000000"
 preserveAspectRatio="xMidYMid meet">

<g transform="translate(0.000000,212.000000) scale(0.100000,-0.100000)"
fill="#000000" stroke="none">
<path d="M764 2102 c-13 -8 -97 -179 -120 -243 -11 -33 -15 -87 -15 -224 0
-99 3 -188 6 -197 5 -13 19 -17 55 -16 75 0 79 7 81 123 0 55 -2 108 -6 118
-4 9 -3 17 3 17 5 0 7 18 5 43 -6 49 7 65 59 73 21 4 40 0 53 -9 19 -15 20
-27 20 -224 0 -184 -2 -213 -19 -248 -11 -22 -19 -55 -18 -75 1 -23 -2 -30 -7
-21 -6 9 -14 -1 -26 -35 -10 -27 -27 -69 -38 -94 -16 -35 -21 -73 -25 -174 -2
-71 -1 -158 3 -194 l7 -65 17 27 c10 15 16 37 14 50 -3 13 1 27 8 31 9 6 11
-4 6 -47 l-5 -56 31 -5 c53 -8 61 9 65 131 l3 107 -20 -25 c-27 -33 -27 -16
-1 91 20 83 30 107 30 73 1 -10 12 13 24 51 13 39 41 108 61 154 l38 84 -2
260 -1 259 -56 127 c-31 69 -61 129 -68 133 -6 4 -42 8 -81 8 -38 0 -75 -4
-81 -8z m-20 -220 c-1 -7 -2 -21 -2 -32 -3 -35 -22 -21 -22 16 0 24 4 34 13
32 6 -3 12 -10 11 -16z m-74 -282 c0 -20 -5 -30 -15 -30 -10 0 -15 10 -15 30
0 20 5 30 15 30 10 0 15 -10 15 -30z m280 -100 c0 -16 -4 -30 -10 -30 -5 0
-10 14 -10 30 0 17 5 30 10 30 6 0 10 -13 10 -30z m58 -103 c2 -28 -1 -37 -12
-37 -12 0 -16 11 -16 41 0 52 24 48 28 -4z m-68 -102 c35 -18 37 -36 11 -140
-17 -70 -17 -70 -33 -45 -9 14 -19 45 -23 70 l-6 45 19 -24 19 -23 13 32 c13
31 12 34 -13 54 -15 12 -27 27 -27 34 0 16 5 15 40 -3z m-77 -167 c-3 -15 -9
-25 -14 -22 -11 6 -12 48 -2 58 12 12 22 -9 16 -36z m17 -388 c0 -16 -4 -30
-10 -30 -5 0 -10 14 -10 30 0 17 5 30 10 30 6 0 10 -13 10 -30z"/>
<path d="M441 1412 l-72 -199 4 -341 4 -342 -73 0 c-73 0 -104 -6 -104 -20 0
-4 41 -5 91 -2 l91 5 -7 -84 c-4 -46 -8 -89 -10 -96 -2 -6 -29 -15 -59 -18
-73 -9 -106 9 -106 59 0 28 -4 35 -26 40 -20 5 -24 11 -18 24 5 9 8 45 7 78
-2 50 1 65 17 79 16 15 20 31 20 84 l-1 66 -44 -120 c-26 -69 -45 -138 -45
-161 0 -33 -4 -43 -20 -47 -13 -3 -20 -13 -19 -29 1 -17 3 -18 6 -6 5 21 23
24 23 4 0 -26 -12 -45 -25 -40 -7 3 -15 -5 -18 -17 -4 -13 -5 -24 -4 -24 50
-23 80 -73 37 -62 -11 3 -18 1 -14 -4 3 -5 17 -9 31 -9 20 0 24 -4 20 -20 -3
-11 0 -20 5 -20 7 0 8 -15 4 -40 -6 -41 16 -102 46 -128 9 -7 65 -10 173 -7
143 3 160 5 166 22 11 30 -2 76 -32 111 -16 18 -32 44 -35 58 -10 41 3 106 33
164 l28 54 3 413 c3 403 3 413 22 413 14 0 20 7 20 21 0 16 -4 19 -20 14 -19
-6 -20 -1 -22 137 0 79 0 153 1 166 1 12 0 22 -2 22 -2 0 -36 -89 -76 -198z
m-13 -309 c-3 -42 -21 -51 -26 -15 -4 29 4 52 18 52 7 0 10 -15 8 -37z m-268
-788 c0 -8 -7 -15 -15 -15 -8 0 -15 7 -15 15 0 8 7 15 15 15 8 0 15 -7 15 -15z"/>
<path d="M815 529 c-4 -6 -10 -50 -12 -98 -6 -108 4 -126 62 -113 l40 8 -2 94
c-1 51 -6 96 -10 100 -16 15 -71 21 -78 9z"/>
</g>
</svg>
