<?xml version="1.0" standalone="no"?>
<!DOCTYPE svg PUBLIC "-//W3C//DTD SVG 20010904//EN"
 "http://www.w3.org/TR/2001/REC-SVG-20010904/DTD/svg10.dtd">
<svg version="1.0" xmlns="http://www.w3.org/2000/svg"
 width="315.000000pt" height="349.000000pt" viewBox="0 0 315.000000 349.000000"
 preserveAspectRatio="xMidYMid meet">

<g transform="translate(0.000000,349.000000) scale(0.100000,-0.100000)"
fill="#000000" stroke="none">
<path d="M2673 3465 c-28 -26 -178 -344 -198 -421 -16 -62 -20 -147 -18 -384
1 -223 1 -229 15 -258 13 -27 14 -27 98 -24 121 5 121 5 127 185 5 110 3 154
-8 178 -10 25 -10 34 -1 37 8 2 12 30 12 83 0 78 0 79 32 95 40 21 125 22 145
1 13 -12 17 -59 23 -239 7 -211 -5 -503 -19 -479 -11 18 -44 -117 -38 -155 5
-31 4 -34 -9 -23 -8 6 -16 10 -18 8 -5 -6 -56 -137 -56 -144 0 -4 -14 -39 -31
-78 -25 -56 -33 -92 -39 -171 -10 -120 3 -483 17 -497 17 -17 56 60 54 108 0
23 4 45 11 49 8 5 10 -16 5 -83 l-7 -91 57 -4 c49 -3 58 0 71 20 23 36 31 96
32 242 l0 135 -27 -40 c-27 -38 -28 -39 -31 -15 -3 25 52 277 62 288 3 3 6
-15 7 -39 0 -41 2 -36 28 51 15 53 55 156 89 230 34 74 66 158 73 185 15 64
13 791 -2 850 -6 22 -26 69 -44 105 -18 36 -52 111 -75 165 -62 145 -59 143
-199 147 -104 3 -118 1 -138 -17z m-30 -366 c-5 -46 -14 -70 -23 -64 -11 7
-13 55 -4 80 9 24 29 12 27 -16z m-123 -433 c0 -30 -5 -46 -15 -50 -12 -4 -15
4 -15 44 0 38 4 50 15 50 11 0 15 -12 15 -44z m454 -159 c-9 -53 -14 -61 -25
-50 -7 7 -8 29 -4 57 6 37 10 44 21 35 8 -7 11 -22 8 -42z m86 -167 c0 -47 -3
-60 -15 -60 -12 0 -15 13 -15 60 0 47 3 60 15 60 12 0 15 -13 15 -60z m-88
-171 c24 -18 28 -27 27 -67 -1 -62 -41 -237 -54 -236 -19 2 -49 78 -52 134
l-3 55 15 -33 c18 -38 28 -35 55 18 27 53 25 67 -9 85 -29 15 -61 51 -61 68 0
14 50 -1 82 -24z m-139 -239 c-2 -47 -8 -59 -24 -43 -13 13 0 95 15 90 6 -2
10 -23 9 -47z m27 -631 c0 -61 -23 -64 -28 -4 -3 32 7 54 26 55 1 0 2 -23 2
-51z"/>
<path d="M1539 3464 c-26 -7 -52 -21 -59 -29 -24 -29 -31 -271 -16 -615 7
-185 9 -335 5 -348 -5 -13 -9 -52 -9 -87 0 -72 -3 -75 -86 -75 -30 0 -54 -4
-54 -10 0 -6 29 -10 68 -10 l69 0 6 -232 c4 -128 7 -307 7 -398 l0 -165 30 52
c42 74 54 77 48 14 -4 -35 -12 -59 -28 -76 -14 -15 -20 -30 -16 -41 6 -17 6
-17 -12 -1 -19 17 -19 9 -25 -360 -3 -208 -8 -386 -12 -395 -10 -25 -70 -37
-145 -30 l-65 7 0 632 0 631 -46 -51 -46 -51 -7 52 -7 52 -40 0 -40 0 3 -71
c2 -51 -1 -73 -9 -76 -7 -3 -13 4 -14 14 0 10 -7 -7 -14 -37 -11 -43 -14 -172
-14 -600 l-1 -545 24 -65 c48 -131 148 -346 172 -370 23 -23 30 -25 115 -22
50 1 107 -2 127 -7 28 -8 41 -7 57 3 23 15 98 175 159 338 47 127 49 161 38
723 -7 369 -12 457 -25 490 -16 43 -13 60 6 34 9 -12 13 51 15 279 1 163 3
296 5 298 1 1 32 -6 68 -15 l67 -16 7 -350 c4 -193 4 -576 1 -850 -4 -275 -7
-511 -7 -525 0 -14 1 -105 3 -203 3 -176 3 -179 28 -199 21 -17 34 -19 110
-13 47 3 116 11 155 17 38 6 102 8 142 4 l72 -6 11 38 c12 45 13 352 0 406 -4
21 -15 43 -22 47 -18 12 -62 11 -74 -1 -5 -5 -46 -12 -90 -16 -74 -6 -83 -5
-92 12 -12 24 -13 955 -1 1005 11 45 24 51 118 54 61 1 77 5 87 21 20 30 34
139 34 267 0 174 -11 187 -156 187 -35 0 -66 5 -70 11 -14 23 -24 740 -11 792
8 28 9 28 62 22 46 -6 55 -5 55 8 0 23 -18 30 -24 10 -3 -10 -4 19 -3 64 2 71
5 85 26 107 14 14 33 26 43 26 16 0 18 -9 18 -72 1 -43 6 -83 15 -98 9 -18 10
-29 3 -38 -13 -15 -38 2 -38 24 0 8 -5 14 -10 14 -8 0 -5 -45 4 -57 1 -1 29
-4 61 -5 l59 -3 8 40 c10 44 7 420 -3 430 -4 3 -45 8 -91 12 l-85 6 5 -31 c3
-25 9 -31 33 -34 l29 -3 -33 -47 c-32 -47 -32 -47 -78 -42 -29 4 -49 2 -53 -5
-14 -23 -25 -10 -19 24 4 28 2 35 -8 33 -20 -4 -24 56 -6 74 12 11 2 15 -67
25 -44 7 -89 12 -99 13 -35 0 -40 -44 -38 -335 2 -154 -1 -394 -5 -532 l-7
-253 -69 0 -69 0 2 494 c1 272 -2 500 -7 507 -4 8 -7 27 -5 44 3 41 -30 75
-72 74 -18 0 -53 -7 -78 -15z m637 -194 c2 0 4 -14 4 -30 l0 -30 -40 20 c-31
16 -40 26 -40 45 0 25 0 25 36 10 20 -8 38 -15 40 -15z m-121 -115 c0 -27 -31
-32 -38 -6 -6 24 1 33 23 29 8 -2 15 -12 15 -23z m-409 -263 c19 -89 37 -168
40 -176 4 -9 -6 -21 -25 -31 -25 -12 -32 -13 -35 -3 -6 19 -37 418 -35 453 1
20 5 12 11 -25 5 -30 25 -128 44 -218z m504 225 c0 -18 -6 -42 -14 -53 -13
-17 -15 -17 -21 -3 -6 16 18 89 29 89 4 0 6 -15 6 -33z m-118 -123 c4 -3 -3
-27 -14 -52 -21 -46 -21 -48 -4 -115 l18 -68 -27 -35 c-15 -19 -30 -32 -33
-29 -4 4 -9 69 -12 146 l-5 139 25 9 c31 11 45 13 52 5z m-99 -244 c7 -31 0
-60 -13 -60 -10 0 -21 56 -14 75 10 24 21 18 27 -15z m-15 -238 c-19 -22 -42
52 -26 81 11 21 13 19 25 -22 10 -34 10 -48 1 -59z m-365 -22 c6 -80 -7 -71
-18 13 -5 40 -10 47 -28 47 -21 1 -21 1 3 15 14 7 28 11 31 7 4 -4 9 -41 12
-82z m411 -55 c20 -30 20 -42 2 -61 -23 -22 -65 -18 -75 9 -7 17 -3 28 17 50
32 33 36 33 56 2z m25 -119 c10 -12 8 -17 -9 -26 -12 -6 -30 -26 -40 -43 -11
-18 -20 -29 -21 -24 -6 56 -1 80 22 93 31 17 34 17 48 0z m-339 -51 c0 -13 -5
-36 -12 -50 -11 -25 -16 -26 -70 -23 l-57 3 -3 -50 c-2 -35 -7 -50 -17 -50
-12 0 -14 14 -12 65 1 51 6 68 21 79 11 7 20 22 20 32 0 17 8 19 65 19 62 0
65 -1 65 -25z m390 -40 c0 -28 -24 -34 -34 -9 -8 20 1 34 20 34 8 0 14 -10 14
-25z m-351 -111 c1 -44 -25 -53 -33 -12 -9 48 -7 76 7 81 14 5 25 -24 26 -69z
m419 -66 c7 -7 12 -43 12 -90 l0 -78 -59 0 c-66 0 -66 1 -77 80 -9 71 11 100
69 100 24 0 48 -5 55 -12z m-516 -834 c2 -29 -1 -49 -10 -56 -7 -6 -14 -9 -16
-7 -6 7 -13 98 -8 104 17 17 30 0 34 -41z m-52 -30 c0 -45 -3 -55 -16 -52 -8
2 -15 6 -15 11 1 4 1 27 1 52 0 33 4 45 15 45 12 0 15 -13 15 -56z m107 -356
c-21 -13 -24 -9 -30 40 -4 37 -2 50 11 60 15 12 18 8 24 -40 4 -36 3 -55 -5
-60z m-73 -70 c15 -56 -3 -111 -25 -77 -10 16 -12 83 -2 92 12 12 21 7 27 -15z"/>
<path d="M1169 2380 c-63 -270 -65 -280 -44 -280 11 0 31 -7 43 -16 12 -8 22
-10 22 -5 0 6 12 8 29 5 l30 -6 -6 288 c-3 159 -7 290 -8 291 -1 2 -31 -123
-66 -277z"/>
<path d="M2181 2477 c-23 -23 -9 -46 64 -106 l75 -62 10 27 c9 24 7 31 -17 56
-15 16 -33 26 -39 24 -8 -3 -15 7 -19 23 -7 31 -56 56 -74 38z"/>
<path d="M1155 1930 c3 -5 12 -7 20 -3 21 7 19 13 -6 13 -11 0 -18 -4 -14 -10z"/>
<path d="M2738 1153 c7 -3 16 -2 19 1 4 3 -2 6 -13 5 -11 0 -14 -3 -6 -6z"/>
<path d="M2754 959 c-13 -20 -17 -311 -5 -329 12 -17 127 -16 148 2 21 17 12
302 -10 325 -4 4 -34 9 -66 11 -42 3 -61 0 -67 -9z"/>
<path d="M806 827 c-10 -43 -16 -81 -13 -84 9 -9 39 104 35 134 -2 20 -9 4
-22 -50z"/>
<path d="M686 308 c-15 -68 -30 -132 -32 -144 -5 -18 -2 -20 25 -16 17 2 49
-3 70 -12 39 -15 40 -15 60 10 29 36 34 59 26 111 -5 36 -15 54 -45 80 -21 19
-44 48 -50 64 -7 16 -16 29 -19 29 -4 0 -20 -55 -35 -122z"/>
<path d="M1632 170 c-70 -5 -95 -11 -105 -24 -10 -14 -36 -18 -152 -22 -194
-7 -185 -4 -185 -64 0 -28 1 -50 3 -50 1 0 29 11 62 25 64 26 164 33 237 16
24 -6 40 -5 48 3 6 6 68 16 138 21 l127 10 0 37 c1 33 -3 39 -29 48 -16 5 -34
9 -40 8 -6 0 -53 -4 -104 -8z"/>
<path d="M1096 65 c-3 -9 -6 -28 -6 -42 0 -20 4 -24 23 -21 18 2 22 9 22 38 0
38 -27 55 -39 25z"/>
</g>
</svg>
